<svg id="Capa_1" data-name="Capa 1" xmlns="http://www.w3.org/2000/svg" viewBox="0 0 176.33 310"><defs><style>.cls-1{fill:#5996a9;}.cls-2{fill:#92ae24;}.cls-3{fill:#6d9b2e;}.cls-4{fill:#657226;}.cls-5{fill:#e55434;}.cls-19,.cls-6{fill:#3f8e35;}.cls-6{fill-rule:evenodd;}.cls-7{fill:#ea7520;}.cls-8{fill:#6f8e2c;}.cls-9{fill:#e35011;}.cls-10{fill:#5c3543;}.cls-11{fill:#82a529;}.cls-12{fill:#f8f6cc;}.cls-13{fill:#96be1f;}.cls-14{fill:#6d9d2e;}.cls-15{fill:#fccd20;}.cls-16{fill:#c3b8a4;}.cls-17{fill:#efece0;}.cls-18{fill:#cddc8a;}.cls-20{fill:#c7e2da;}.cls-21{fill:#adc412;}.cls-22{fill:#dc7f21;}.cls-23{fill:#ca5e16;}.cls-24{fill:#db7122;}.cls-25{fill:#feecab;}.cls-26{fill:#f9d071;}.cls-27{fill:#dcab49;}.cls-28{fill:#308334;}.cls-29{fill:#cc2517;}.cls-30{fill:#fdd740;}.cls-31{fill:#f6b31e;}.cls-32{fill:#fff;}.cls-33{fill:#efd49b;}.cls-34{fill:#fae6b6;}.cls-35{fill:#f4f1e4;}</style></defs><title>comida</title><ellipse class="cls-1" cx="90.67" cy="250.83" rx="56.85" ry="4.66"/><path class="cls-2" d="M64.19,180.38c-3,5.53-1,8,3.41,9.29.29,2.76,2,7.18,8.48,6.47,1.49,1.67,4.79,3.79,9.25-.35,6.2-5.76,8.6-7,11.93-10.66,3.55-3.87,2.14-7.42-1.28-8.77.87-4-3-7.88-7.23-8.21-2-4.09-6.92-6.13-9-4.08-2.06-2.94-5.14-4.82-8.84,1.68C69.76,167.79,67.21,174.85,64.19,180.38Z"/><path class="cls-3" d="M69.19,192c-.73-2.18-1.49-2.22-1.18-3.81-.89.88-2.81,0-3.3-1.46-1.41-4.41,9.61-15.13,13.47-19.38C78.51,173.23,70.6,182.05,69.19,192Z"/><path class="cls-3" d="M77,195.7c1.42-.8,9.69-6.91,16.36-17.3C95.26,179.62,81.34,199.43,77,195.7Z"/><path class="cls-4" d="M83.34,168.27c2.75.9,4.21-.76,5.94-3.21,1.4-2,.47-2.76-1.25-3-2.26-.34-1.66-3.42-.21-3.71,2-.41,7.49,2.86,3.81,8.42-2,3-3.17,4.93-1.47,6.55C86.93,172.77,85.26,171.57,83.34,168.27Z"/><path class="cls-5" d="M141.43,169.11c-2,7.11-8.43,9.87-15.39,9.34s-12.64-5.53-13-12.53c-.43-9.34,5.3-13.48,14.73-10.43C138.14,153.5,144,159.91,141.43,169.11Z"/><path class="cls-6" d="M130,156.26a27.51,27.51,0,0,0-.8-4.06,11.42,11.42,0,0,0-2.22,3.92l-.39-.29c-4.79-3.18-7.92.54-7.67,1.18,1.42-1,3.77-.76,5.91.68-4.44,1.57-2.62,4.53-1.87,4.74.15-2.46,4.35-2.15,5.22-3.36.37,1.11,4.73,1.4,4.73,4.38.76,0,2.76-3.63-1.57-5.17,2.24-1.2,4.56-1.16,5.85,0C137.46,157.62,134.73,154.09,130,156.26Z"/><path class="cls-7" d="M70,216.23c-1.78,2.31-20.19-4.72-32.69-14.36-7.87-6.08-5.86-9.39-3-13.15s5.38-6.7,13.46-.47C60.27,197.9,71.74,213.93,70,216.23Z"/><path class="cls-8" d="M37.8,185.34c-.72-.55-2.07.83-3.18,0s-1.64-2.85-2.46-4.55c-1.2,1.65.68,4.75.68,4.75l-2.19-2.79-.56.67.31,1a2.53,2.53,0,0,0-.7-.55c-.51-.29-1.29.44-.9,1.07s1.45,2.1,1.45,2.1a7.34,7.34,0,0,0-3.06-1.15c-1.11-.2-2.06.82-1,1.24s3,1.22,3,1.22-3.53,1-2.52,1.13c2.23,0,3.61-.16,4.37.42s.12,2.52.84,3.07c1.21.94,2.83-.53,4.45-2.64S39,186.28,37.8,185.34Z"/><path class="cls-9" d="M44.66,186.13a13.4,13.4,0,0,0-1.84-.9c.85,1.52.42,3.7,0,4.77A8.7,8.7,0,0,0,44.66,186.13Zm17.67,16.49c-.44-.55-.9-1.09-1.37-1.65a11.82,11.82,0,0,1-1.12,5.23A5.79,5.79,0,0,0,62.33,202.62ZM53,205.8c1.08-.68,2.38-2.11,2-3.46A6.53,6.53,0,0,0,53,205.8Zm10.46,9.87c.41.13.81.24,1.2.35a4.4,4.4,0,0,0,.76-2.08A5.34,5.34,0,0,1,63.45,215.67ZM35.23,200.16c.44.4.92.82,1.45,1.25a14.63,14.63,0,0,0,2.75-4.62A11.34,11.34,0,0,1,35.23,200.16Zm19.18-5.71a10,10,0,0,1-1.9,5.7C55.14,198.69,56.09,196.64,54.41,194.45Zm-8.84,11.84c2.85-.08,4.31-3,4.24-5C47.62,203.22,46.16,205.77,45.57,206.29ZM60,212.17c1.63-.13,3.46-1.22,2.65-3.86C61.54,210.21,60.86,211.5,60,212.17Zm-8-1.24,1.22.6a8.76,8.76,0,0,0,2.44-3.7A11.54,11.54,0,0,1,52,210.93ZM47.4,193.28c-1,2.49-3.07,4.24-4,6.43A6,6,0,0,0,47.4,193.28Z"/><path class="cls-10" d="M126.62,218.22a10.23,10.23,0,0,1-3.83.81,8.27,8.27,0,0,1-3.21-1.52c-1.54-.95-3.4-.73-4.12.57-.85,1.53,0,4.93,7.05,5.65s8.47-2.54,8-4.11S128.44,217.68,126.62,218.22Z"/><path class="cls-11" d="M105.56,131.6l-9.23,24.7a13.19,13.19,0,0,0,9.23-24.7Z"/><path class="cls-12" d="M105.28,132.36l-8.67,23.18a12.38,12.38,0,0,0,8.67-23.18Z"/><path class="cls-13" d="M106.06,134.26c-.78-.33-1.41-.17-1.69.56l-2.73,7.26c-.27.72.08,1,.79.73l7.06-3.19c.71-.34.83-1,.47-1.74A16.4,16.4,0,0,0,106.06,134.26Z"/><path class="cls-13" d="M110.35,149.22c.33-.77.17-1.4-.55-1.67l-7.27-2.74c-.72-.27-1,.09-.73.8l3.21,7c.31.71,1,.83,1.72.47A15.86,15.86,0,0,0,110.35,149.22Z"/><path class="cls-13" d="M111.31,140.87c-.31-.79-.87-1.12-1.58-.8l-7,3.21c-.72.32-.7.8,0,1.08l7.25,2.72c.72.28,1.27-.1,1.55-.9A15.82,15.82,0,0,0,111.31,140.87Z"/><path class="cls-13" d="M103.74,154.44c.79-.31,1.12-.87.8-1.58l-3.21-7.06c-.31-.71-.8-.69-1.08,0l-2.72,7.25c-.28.73.1,1.27.89,1.56A16.13,16.13,0,0,0,103.74,154.44Z"/><path class="cls-5" d="M115.08,238.26c-1.14-.53-1.3-1.26-1.27-1.41s0-.74,1.49-.5a9.43,9.43,0,0,0,3.28-.08c4.64-.87,8.56-3.82,14.5-8.2,2.57-1.91,7.63-4.48,9.78-7.23,1.23-1.58,3.11-3.83,5.09-4.67a6.4,6.4,0,0,1,5.33,4.39c-.2,3.6-4.34,7.37-7.69,9.56-4.27,2.77-14.83,8.34-23.31,9A15,15,0,0,1,115.08,238.26Z"/><path class="cls-14" d="M153.93,213.34c-1.65,2.23-5.24.4-6,2.83a6.4,6.4,0,0,1,5.33,4.39c1.69-1.19-.68-4.22,1.79-6.58s3.36-.53,2.89.27c-.13.55,1.14,1,1.56.13C159.82,211.8,156.48,209.92,153.93,213.34Z"/><path class="cls-15" d="M75,156.42a5.82,5.82,0,0,1-4.18-1.73,5.88,5.88,0,0,1-8.43-8.2,5.88,5.88,0,0,1,8.43-8.2,5.88,5.88,0,0,1,8.42,8.2A5.87,5.87,0,0,1,75,156.42Zm-4.18-6.64c1,0,1,4.19,4.18,4.19a3.43,3.43,0,0,0,3.42-3.42c0-3.06-3.69-3.06-3.69-4.06s3.69-.83,3.69-4.06A3.43,3.43,0,0,0,75,139c-3.15,0-3.3,4.2-4.18,4.2S70,139,66.6,139a3.44,3.44,0,0,0-3.43,3.43c0,3.18,3.69,3.38,3.69,4.06s-3.69,1.18-3.69,4.06A3.43,3.43,0,0,0,66.6,154C69.82,154,69.83,149.78,70.78,149.78Z"/><path class="cls-5" d="M31.58,230.66a6.33,6.33,0,0,1-2.37-4.32A6.4,6.4,0,0,1,23.48,216a6.45,6.45,0,0,1,4.15-2.35A6.39,6.39,0,0,1,38,208.09a6.33,6.33,0,0,1,2.37,4.32,6.35,6.35,0,0,1,4.73,1.36,6.38,6.38,0,0,1-3.16,11.33,6.39,6.39,0,0,1-10.36,5.56Zm1-8.49c.8.65-2,4.23.7,6.41a3.73,3.73,0,0,0,5.23-.58c2.09-2.61-1-5.11-.36-6s3.69,1.8,5.89-.95a3.72,3.72,0,0,0-.58-5.23c-2.68-2.15-5.64,1.32-6.4.72s2.15-4.12-.7-6.4a3.71,3.71,0,0,0-5.23.58c-2.17,2.7.83,5.39.36,6s-3.93-1.51-5.89.94a3.73,3.73,0,0,0,.58,5.23C28.89,225.08,31.74,221.53,32.55,222.17Z"/><path class="cls-16" d="M59.88,170.75a2.1,2.1,0,0,1-2.94-.62c-.86-1.49.33-3.24-1.19-3.19-.74,0-.92,1.21-.86,2.76.26-.68.86-.63,1.43.52C57,171.54,58.47,171.86,59.88,170.75Z"/><path class="cls-16" d="M43.65,170.75a2.11,2.11,0,0,0,2.94-.62c.85-1.49-.34-3.24,1.18-3.19.75,0,.92,1.21.86,2.76-.25-.68-.86-.63-1.42.52C46.54,171.54,45.05,171.86,43.65,170.75Z"/><path class="cls-17" d="M60.81,164.64a9.72,9.72,0,0,0-9.05-5.56,9.72,9.72,0,0,0-9,5.56c-1.33,3.27-.22,5.4.94,6.11a2.11,2.11,0,0,0,2.94-.62c.85-1.49-.34-3.24,1.18-3.19,2,.07,0,8.12,0,9.8s.56,2.95,4,3,4-1.32,4-3-2-9.73,0-9.8c1.52-.05.33,1.7,1.19,3.19a2.1,2.1,0,0,0,2.94.62C61,170,62.14,167.91,60.81,164.64Z"/><path class="cls-16" d="M40.13,167.5a2.1,2.1,0,0,1-2.42,1.78c-1.68-.36-2.2-2.43-3.17-1.25-.48.57.28,1.5,1.48,2.48-.34-.65.11-1.06,1.34-.72C38.79,170.18,40,169.29,40.13,167.5Z"/><path class="cls-16" d="M29.3,179.59A2.12,2.12,0,0,0,30.8,177c-.53-1.64-2.64-1.92-1.59-3,.52-.54,1.52.12,2.63,1.2-.67-.26-1,.22-.57,1.4C31.82,178,31.07,179.28,29.3,179.59Z"/><path class="cls-17" d="M36.21,162.73a9.7,9.7,0,0,0-10.18,3,9.69,9.69,0,0,0-1.9,10.45c1.54,3.18,3.87,3.77,5.17,3.39A2.12,2.12,0,0,0,30.8,177c-.53-1.64-2.64-1.92-1.59-3,1.37-1.42,6,5.42,7.3,6.54s2.57,1.55,4.88-1,1.69-3.84.45-5-8.56-5-7.3-6.54c1-1.18,1.49.89,3.17,1.25a2.1,2.1,0,0,0,2.42-1.78C40.38,166.17,39.53,163.92,36.21,162.73Z"/><path class="cls-14" d="M161.48,205.55c-8.88-11.3-13.72-35.52-17.35-62.16C146.45,145.67,160.68,193.44,161.48,205.55Z"/><path class="cls-14" d="M162.87,207.45c-3.8-16.32-11.42-55.23-13.2-70.65C156.06,145.43,163.17,192.9,162.87,207.45Z"/><path class="cls-14" d="M163.58,208.72c2.52-4,3.19-31.58-.53-44.78C162.51,177.14,163.58,208.72,163.58,208.72Z"/><path class="cls-18" d="M156.16,196.44c2.13,5.33,8.25,19.6,9.71,27.86.67.94,2.8.8,3.46-.66-.26-2.8-4-14.81-5.35-17.56S159.8,200.62,156.16,196.44Z"/><path class="cls-19" d="M116.75,256.8a1.75,1.75,0,0,0-1.12-.81c.78-1.35-2.85,0-3.65-1,.3-.3,1.19-.87.79-1.27s-1.61.2-2.68,0c.35-.35,1.84-1,1.35-1.71s-1.69,1-3.22.94a2.08,2.08,0,0,1-1.45-.79,9.73,9.73,0,0,1,2.34-1.63,2,2,0,0,1,1.55-.19,5.65,5.65,0,0,1,1.7,1.26c.58.81,1.17,2.26,2,2.87,1.64,1.21,1-.53.8-1.06-.28-.7,1.22.18,1.65.44.78.47,2.52.14,2-.78s-1.52-.57-2.48-.78c.72,0,2.23-.19,1.59-1.07-.77-1.06-1.67.2-3.17-.23.64-.25.92-.42.78-.63-.49-.73-3.53-.63-4.27-1.52,2-1.65,4.29.44,5.62.67s2-1,1.17-1.62c-.55-.42-1.82-.58-2.32-1.11,1-1.51,3.23.33,3.75-.92s-1.63-1.15-2.27-1.16c-.23-.33,2.65-.88,1-1.45.34-.31,1.18-.61,1-1.26-.3-1.18-1.32.16-1.83.58.3-.87,0-1.45-1.61.34-.26-.74.37-2.31-.56-2.19s-1.05,2.42-1.5,2.38-.11-2-.7-2-.93,1.17-1.12,1.88,0,2.81-.63,3.4c-.88.88-1.71,1.25-1.42.36.12-.4,1.41-3.35.53-3.65-.61-.36-1.11,1.74-1.26.3-.06-.57.47-1.31.44-2,0-1-.44-1.44-1.06-.39-.42.69.19,1.56-.52,2-.17-.1-.62-1.9-1.19-1.34s.48,2.41.74,3.16c-.3-.07-.87-1-1.12-.68-.82,1.2,2.17,2.93,2.17,4.11,0,.68-2.18,3.13-3.05,2.75s1.87-3,1.06-3.81c-.17-.19-.5.31-.8.73a2.83,2.83,0,0,1-.18-1.84c.28-1.82-1-1-1.41,1.33-.12.7-.29.87-.49.74a3,3,0,0,1-.14-.64c0-1.32.52-2.63.29-3.83-.11-1-.74-1.73-1-.48-.12.4-.39.94-.65.69s.37-3-.85-1.65c-.29-.83-.62-1.23-1-1.06-.68.31-.26.87-.08,1.48-2.35-.54.83,1.71.4,1.95s-1-.72-1.6-.49c-1.41.29,2.77,3.43,2.62,4s-1.16-.45-1.86-1c-1.47-1.12-2.64-.6-.83,1.1s1.31,2,.64,2.19c-.35.11.06.68,1.12.83s3.2.2,3.26.79a1.5,1.5,0,0,1-.61,1.22,41.93,41.93,0,0,0-5,4.77c-.22.27.67.83.67.83,1.07-1,5.52-5.84,6.64-5.38s1.1,2.11.57,3.21c-.39.83-.58,1.7.15,1.78s.73-1.69,1.58-1.16c.68.43.85,2.06,1.48,2.79,2,2.15.84-3.36,1.42-3.62s.71,2.1,2.12,2.7c1,.63,1.42-.21.9-1.1-.4-.71-1.43-1.21-1.12-1.46s3.16,2.33,2.71.6C116.28,257.35,116.87,257.41,116.75,256.8Z"/><path class="cls-19" d="M51.46,143.62c0-.57.28-2.34.36-3.27a2.29,2.29,0,0,1,.85-1.6A6.65,6.65,0,0,1,55,138c1.15,0,2.91.39,4,0,2.22-.75.16-1.29-.48-1.44-.85-.2,1-1,1.51-1.28.95-.43,1.79-2.29.54-2.37-1-.06-1.53,1.07-2.37,1.84.45-.71,1.29-2.24.05-2.21-1.52,0-.92,1.71-2.31,2.85.19-.78.21-1.15-.09-1.16-1,0-2.91,2.93-4.24,3-.23-3,3.24-3.76,4.33-4.87s.42-2.57-.77-2.17c-.74.24-1.73,1.33-2.57,1.45-.76-1.95,2.44-2.83,1.6-4.15s-2.16.8-2.59,1.39c-.46,0,.91-3.09-.71-1.91-.07-.52.21-1.52-.52-1.79-1.3-.5-.72,1.34-.65,2.1-.63-.85-1.39-.9-.74,1.75-.87-.24-1.94-1.86-2.45-.91s1.61,2.59,1.28,3-1.93-1.2-2.39-.68.49,1.65,1,2.29,2.63,1.89,2.8,2.84c.26,1.41.06,2.43-.58,1.58-.3-.39-2.25-3.55-3.11-2.9-.74.33.91,2.19-.54,1.39-.58-.33-.93-1.32-1.64-1.77-.92-.6-1.65-.53-1.07.74.38.85,1.6.86,1.51,1.79-.21.1-2.21-.66-2,.24s2.6,1.13,3.48,1.38c-.28.24-1.56.14-1.38.62.59,1.55,4.2-.13,5.31.64.61.49.92,3,1.15,4.32C50.47,144.42,51.41,144.42,51.46,143.62Z"/><path class="cls-2" d="M54.92,239.37l-2.68-1,3.12-.1a5.54,5.54,0,0,1-1.76-2.76l-2.46.08,2.31-1.07c0-.08,0-.15,0-.24a5.49,5.49,0,0,1,.5-2.43c-1.7,1-4.57,2.51-5.92,2.55l-3.41.1c-.4,0-.69,1.13-.65,2.5s.41,2.46.8,2.45l3.42-.11c1.37,0,4.15,1.22,5.9,2.09A3.31,3.31,0,0,1,54.92,239.37Z"/><path class="cls-19" d="M62.46,250.21a6.13,6.13,0,0,0,5.88-5.38,3.92,3.92,0,0,0,1.49-7.12,7.63,7.63,0,0,0,1.57-4.94c-.13-4-3.22-7.22-6.92-7.11a7.71,7.71,0,0,0-.84.09,4.44,4.44,0,0,0-8.63,1.6,4.35,4.35,0,0,0,.69,2.24,5.54,5.54,0,0,0,.13,9A3.36,3.36,0,0,0,54,241.72a3.39,3.39,0,0,0,2.17,3.05A6.13,6.13,0,0,0,62.46,250.21Z"/><path class="cls-10" d="M127.23,247c.74.08,2.65-.45,3,.49s.35,1.89,1.39,2.43a2.29,2.29,0,0,0,2.84-.4c1.26-1.13,1.62-4.65-2.94-6.64s-6.38.37-6.59,1.94C124.71,246.23,126,246.84,127.23,247Z"/><path class="cls-8" d="M12.6,198.93a2.63,2.63,0,0,0-.39.06l-.17.07c.2-1.94,1.85-3.91,2.83-5.49,1.6-2.58,2.86-5.25,1.94-8.21a30.15,30.15,0,0,1-3.44,7.57c-.78,1.23-2,2-2.83,3.28a3.41,3.41,0,0,1-1.91,1.55.28.28,0,0,1-.36-.24c-1.09-5.8,4.36-11.47,8.65-14.44.27-.18.55.21.33.42a.23.23,0,0,1,0,.17c-.07.28-.15.55-.22.83l0,0a7.69,7.69,0,0,1-.07,6.13c0,.12-.1.22-.15.34a7,7,0,0,1,1.22,3.43,2,2,0,0,0-.35.07,1,1,0,0,0-.17.1,6,6,0,0,0-1-3c-.49,1-1.1,1.95-1.68,2.88C14.18,195.71,12.84,197.41,12.6,198.93Z"/><path class="cls-20" d="M10.55,195.34a1.34,1.34,0,0,0-.11.14C10.64,195.21,10.65,195.21,10.55,195.34Z"/><path class="cls-8" d="M18.79,189.49c-.8-1.9-.59-4.3-.93-6.44-.31-1.91,2.34,1.33,2.74,2.17a42.06,42.06,0,0,1,1.92,4.08,8.86,8.86,0,0,1-.14,5.53.27.27,0,0,1-.5,0C21.13,193,19.6,191.41,18.79,189.49Z"/><path class="cls-2" d="M17.74,194.51c3-1.12,7,6.42,3,8.15S14.77,195.63,17.74,194.51Z"/><path class="cls-8" d="M21.39,201.37a1.74,1.74,0,0,1-1.06.83c-.3.11-.63,0-.67-.3,0,0,0,0,0,0v-.1s0,0,0,0,0,0,0,0a1.35,1.35,0,0,1,1.6-.7A.28.28,0,0,1,21.39,201.37Z"/><path class="cls-2" d="M14.53,206.72C10.87,208,8.44,200,12.21,199S18.19,205.43,14.53,206.72Z"/><path class="cls-8" d="M13.66,205.87a.3.3,0,0,1,.16-.32c.32-.15.88-.45,1.14-.05s-.21.63-.43.78-.68.39-.89.09A.37.37,0,0,1,13.66,205.87Z"/><path class="cls-14" d="M111.34,194.76a16.16,16.16,0,0,0-.79,2.48.75.75,0,0,1-.36-.18l-.29-.22c-3.51-2.75-4.59-10-4.33-13.62.23-3.29,1.57-6.37,2.11-9.63,1.55,4.33,4.23,8,4.8,12.74A16.51,16.51,0,0,1,111.34,194.76Z"/><path class="cls-21" d="M108.75,192.72a1.45,1.45,0,0,1,2.23.38,1.19,1.19,0,0,1-.22,1.3C109.25,196,107.49,193.65,108.75,192.72Z"/><path class="cls-21" d="M108.43,186.1c2.49-1,4.11,3.08,1.82,4.27a2.14,2.14,0,0,1-3.13-.74A2.35,2.35,0,0,1,108.43,186.1Z"/><path class="cls-21" d="M108.54,181.11a2,2,0,0,1,1.7,1.86c0,2.08-3.68,2.6-3.55-.5C106.73,181.39,107.64,181,108.54,181.11Z"/><path class="cls-21" d="M107.19,178.2a.87.87,0,0,1,1.31,0c.38.4.53,1.13.1,1.46C107.41,180.58,106.58,179,107.19,178.2Z"/><path class="cls-14" d="M105,176.13c-.79,1.88-.45,2.92-1.43,3.76,3.77.18,3-4.62,4.24-6C106.68,173.82,105.48,175,105,176.13Z"/><path class="cls-14" d="M107.67,173.88c.42.14,1.31,1.66,2,2.51,1.07,1.37,2.22.84,3.27.58a10.38,10.38,0,0,1-2.36-2C108.84,173.37,107.67,173.88,107.67,173.88Z"/><path class="cls-14" d="M108,173.68a4.19,4.19,0,0,0-1.72-3.14c-1.39-1-4.38-2-5.24.08-.58,1.39,1.37,2.21,2.41,1.73,1.42-.64-.22-3-.89-1.07-.11.33.39.53.5.2.44-.38.54-.29.31.26-.16.27-.59.25-.83.23a1,1,0,0,1-1-1c.08-1.88,3.11-.65,4-.25a3.63,3.63,0,0,1,2,3.06C107.49,174.22,108,174.06,108,173.68Z"/><path class="cls-2" d="M35.14,139.75a.24.24,0,0,0-.24.07c-1.65,2.21.26,6.71,1.61,8.54,4.17,5.66,9.37,5.34,9.32,5C44.73,147.43,41.47,141.23,35.14,139.75Z"/><path class="cls-2" d="M36.45,153.26c-1.77-.17-3.24.49-4.94.84-.9.18-1.18.6-1,1.49,0,0,0,0,0,0s0,0,0,0c1.68,4.47,8.63,3,11.75,1.2a.23.23,0,0,0,.08-.33A9.91,9.91,0,0,0,36.45,153.26Z"/><path class="cls-22" d="M88,141.76c1.19.67,3.44-.88,4.56-3s1.08-4.88-.4-5.72-3.79.66-4.85,2.84C86,138.65,86.81,141.09,88,141.76Z"/><path class="cls-23" d="M91,133.44c-1.22.25-4.52,4.21-3.18,7.45A12.63,12.63,0,0,1,91,133.44Z"/><path class="cls-23" d="M91.29,134.64a12.56,12.56,0,0,0-2.77,5.74A22.24,22.24,0,0,0,91.29,134.64Z"/><path class="cls-23" d="M92.46,134.07a8.36,8.36,0,0,1-1.63,5.16C92.22,137.81,93.12,136.26,92.46,134.07Z"/><path class="cls-24" d="M80.81,127.5c-1.37.54-1.65,3-1,5.08.57,1.87,2.41,3.15,3.87,2.64,1.74-.59,1.91-2.89,1-4.75S81.94,127.05,80.81,127.5Z"/><path class="cls-23" d="M80.48,128.67c-.55.71,0,5.24,2.22,5.84C81.21,133.24,80.48,129.48,80.48,128.67Z"/><path class="cls-23" d="M81.57,129.89a10.44,10.44,0,0,0,1.92,4.51A15.68,15.68,0,0,0,81.57,129.89Z"/><path class="cls-23" d="M82,128.41c.25.75,1.83,1.87,2.18,5.07C84.47,131.86,84.43,130.13,82,128.41Z"/><path class="cls-25" d="M140.42,191.85c2.6,4.77,2.88,9.63.64,10.86s-6.18-1.66-8.78-6.44-2.88-9.64-.63-10.87S137.82,187.07,140.42,191.85Z"/><path class="cls-26" d="M145.58,184.48c-4-4.41-9.78-1.31-12.66.29-.36.21-.7.38-1,.55,2.27-.94,6,1.9,8.55,6.53,2.44,4.47,2.84,9,1,10.59l.33-.29C149.45,195,149.25,188.5,145.58,184.48Z"/><path class="cls-27" d="M136.62,184.76a5.91,5.91,0,0,0,1.31,1.23,6.83,6.83,0,0,0,1.57,1,4.4,4.4,0,0,0-1.23-1.33A5,5,0,0,0,136.62,184.76Z"/><path class="cls-27" d="M144.81,186.41a6,6,0,0,1-1.3-1.06,5.27,5.27,0,0,1-1-1.21,4,4,0,0,1,1.4,1A3.58,3.58,0,0,1,144.81,186.41Z"/><path class="cls-27" d="M147.28,191.57a1.66,1.66,0,0,1-.51-.74,1.71,1.71,0,0,1-.19-.88,1.2,1.2,0,0,1,.62.68A1.28,1.28,0,0,1,147.28,191.57Z"/><path class="cls-27" d="M145.13,197.67a4.59,4.59,0,0,0-.6-1.75,6.49,6.49,0,0,0,.13,1.82c.07.38.14.73.22,1,.11-.15.23-.3.33-.45S145.17,197.9,145.13,197.67Z"/><path class="cls-27" d="M144.47,192.49a9.36,9.36,0,0,1-1.2-2.1,9.68,9.68,0,0,1-.87-2.31,5.62,5.62,0,0,1,1.42,2A5.91,5.91,0,0,1,144.47,192.49Z"/><path class="cls-26" d="M136.83,190.34c-2.51-4.63-6.27-7.47-8.55-6.53-2.87,1.39-5.27,1.73-8,3.33,2.38-1.24,6.5,1.8,9.22,6.82s3.05,10.18.68,11.47l-.17.07a20.57,20.57,0,0,0,7.52-4.3h-.1C139.72,200,139.44,195.11,136.83,190.34Z"/><path class="cls-27" d="M132.52,186.92a4.06,4.06,0,0,0,.73,1.08,4.39,4.39,0,0,0,1,1,2.11,2.11,0,0,0-.57-1.19A2.58,2.58,0,0,0,132.52,186.92Z"/><path class="cls-27" d="M130.05,191.88a6,6,0,0,0,.71,1.77,5.73,5.73,0,0,0,1.07,1.57,3.68,3.68,0,0,0-.53-1.88A3.58,3.58,0,0,0,130.05,191.88Z"/><path class="cls-27" d="M135.25,192a6.69,6.69,0,0,0,.53,1.77,6.78,6.78,0,0,0,.84,1.6,4.38,4.38,0,0,0-.42-1.82A4.18,4.18,0,0,0,135.25,192Z"/><path class="cls-27" d="M126.42,185.79a7.83,7.83,0,0,0,1.42,1.5,9.15,9.15,0,0,0,1.73,1.31,4.48,4.48,0,0,0-1.28-1.63A5.62,5.62,0,0,0,126.42,185.79Z"/><path class="cls-27" d="M135.37,201.24a8.5,8.5,0,0,1-.31-1.82,9.74,9.74,0,0,1-.11-1.91,4.76,4.76,0,0,1,.47,1.79A5.74,5.74,0,0,1,135.37,201.24Z"/><path class="cls-25" d="M129.54,194c2.74,5,3.05,10.18.68,11.47s-6.53-1.76-9.27-6.8-3-10.18-.67-11.48S126.8,188.91,129.54,194Z"/><path class="cls-26" d="M128.68,209.22c2.36-1.29,2.07-6.42-.67-11.47s-6.85-8.06-9.23-6.82a15.46,15.46,0,0,0-1.76,1.21c-3.28,2.56-5.38,7.32-2.13,12.65,2.86,4.68,8.22,6.19,13.81,4.44Z"/><path class="cls-27" d="M121.82,197.14a6.58,6.58,0,0,1-1.49-1.34,5.43,5.43,0,0,1-1.12-1.52,4.51,4.51,0,0,1,1.65,1.2A3.48,3.48,0,0,1,121.82,197.14Z"/><path class="cls-27" d="M124.79,208.21a6.88,6.88,0,0,1-.75-1.66,6.54,6.54,0,0,1-.43-1.78,5.54,5.54,0,0,1,1.18,3.44Z"/><path class="cls-27" d="M119.42,202.81a3,3,0,0,1-.86-1.07,3,3,0,0,1-.47-1.26,2.3,2.3,0,0,1,1,1A2.2,2.2,0,0,1,119.42,202.81Z"/><path class="cls-27" d="M127.17,203.75a9.72,9.72,0,0,1-.86-2.27,9.27,9.27,0,0,1-.49-2.4,6.95,6.95,0,0,1,1.35,4.67Z"/><path class="cls-14" d="M94.13,235.28c.63-.55.88-1.81,1.45-2.39a1.11,1.11,0,0,1,1.17-.22c.43.29.14.73.79.8,1,.07,1.17-1.38,1.46-2,.14-.29.22-1,.8-1s.29.73.29,1.09c-.07.58-.37.87.43.65a2.28,2.28,0,0,0,1.09-.94c.58-.73.8-1.82,1.67-2.32a5.81,5.81,0,0,1,4.43,0c1.82.5,4.22,1.74,3.27,4.06-.8,2-1.82,3.92-4.28,4a24.32,24.32,0,0,1-5.66-.73c-.3-.07-1.39,0-1.1.44.12.18.32.66-.58.51a8,8,0,0,0-1.85-.4c-.33,0-.36.42-.47.54-.3.33-2.11-1.16-2.69-1.16S93.52,235.84,94.13,235.28Z"/><path class="cls-19" d="M90.07,239.7c4.17-5.32,12.88-7.44,19.4-7.59.34,0,.35-.55,0-.54-6.67.15-15.51,2.29-19.78,7.75-.21.27.16.65.38.38Z"/><path class="cls-19" d="M94,231.76c.7-1,.6-5.87,2-6.12.61-.09.61.87,1.21-.09.44-.52.27-1.22.44-1.75.18-.35.62-1.22,1-1.13.78.08.35,1.48,1.22.52s1-2.53,1.48-3.58a5.3,5.3,0,0,1,2.79-2.53c2.36-.61,4.8,1.48,5.67,3.41a7.87,7.87,0,0,1,.79,3.14c-.09,1.48-1.13,2.35-2.1,3.31-2,1.83-4.62,1.14-7.07,1.92a2.51,2.51,0,0,0,1.93.53c.61,0,1.83,0,1,.87-1,1.05-3.5.17-4.71.09-.18.7.17,1.22-.53,1.74-.43.44-1.31.26-1.84.09-1.21-.26-1.7-.59-2.91,0C93.8,232.38,94,231.76,94,231.76Z"/><path class="cls-28" d="M88.67,238.74c5.25-6.69,11.55-13.47,18.86-17.92a.27.27,0,0,0-.27-.47c-7.36,4.48-13.69,11.28-19,18-.21.27.17.66.38.38Z"/><path class="cls-14" d="M89.65,230.7c-.3-.85-3.7-2.71-1-2.62-.79-.61-1-2.19-1.75-3a6.89,6.89,0,0,1-1.4-3.14c-.35-2.62,3.06-4.1,5.33-4.28s4.36,2.27,4.71,4.45a5,5,0,0,1-1.22,3.75c-.26.36-1,1-1.14,1.4-.17,1.05.7.35,1.14.87.78,1-1.23,1.75-1.83,1.93a3.49,3.49,0,0,0-1.54,1c-.29.35-.49,1-1,1S89.93,231.55,89.65,230.7Z"/><path class="cls-19" d="M87.14,237.73c3.06-4.71,4.4-8.66,4.21-14.39a.27.27,0,0,0-.54,0,23.11,23.11,0,0,1-1.11,8.94,27.69,27.69,0,0,1-3,5.18c-.19.29.27.56.46.27Z"/><path class="cls-5" d="M88.63,238.58c-5.34-3.2-9.26-1.89-11.3,1.51-2.37,3.95-.26,7.68,1.1,9.73,1,1.55.93,2.67.28,3.46-.53.63-1.28.92-1,1.23s1.3.14,2.26-.34a8.24,8.24,0,0,1,3.55-1.29c2.74-.07,6.73.32,9.09-3.62C94.76,245.7,94,241.78,88.63,238.58Z"/><path class="cls-29" d="M83.05,246.59c1.48.45,2.59,1.51,3.89,1.93A3.45,3.45,0,0,0,83.05,246.59Zm5.39-.76A26.07,26.07,0,0,0,91.56,248,2.76,2.76,0,0,0,88.44,245.83Zm1.55-4.3c-.45-.59-1.33-1.24-2.09-1A3.83,3.83,0,0,0,90,241.53Zm-7.32-.74a8.13,8.13,0,0,1,2.36,1.3A1.59,1.59,0,0,0,82.67,240.79Zm-2.94,6.77a6.49,6.49,0,0,0-2.79-.48c.12.3.26.6.39.88A5.45,5.45,0,0,1,79.73,247.56Zm13.69-3.78a6.87,6.87,0,0,0-1.86-.8,7.12,7.12,0,0,1,2.11,2A5.48,5.48,0,0,0,93.42,243.78Zm-11.84,5.9A21.29,21.29,0,0,0,84,251.43,2.15,2.15,0,0,0,81.58,249.68Zm-2.25-11.79a6.62,6.62,0,0,0-.9.78,6.51,6.51,0,0,1,2.71.37A3.28,3.28,0,0,0,79.33,237.89Zm7.73,12.45a6.6,6.6,0,0,1,1.42,2.11,8.9,8.9,0,0,0,.91-.31A8.44,8.44,0,0,0,87.06,250.34ZM79.18,252a3.4,3.4,0,0,1,1.46-.29,3.62,3.62,0,0,0-1.53-.41A2.48,2.48,0,0,1,79.18,252Zm-1.71-9.42a5.77,5.77,0,0,1,3.36.76C79.85,242,78.63,241.52,77.47,242.6Z"/><path class="cls-30" d="M106.37,203.74a7.6,7.6,0,0,0-4.33-4.6c-3.76-1.65-6.28-.88-8.45-5-.3-.55-2.79,2.16-2.69,3,.1,3.09-1.86,4.33-3.36,7.48a7.55,7.55,0,0,0-.25,6.31c1.79,4.81,7.56,6,12.38,4.25h.06l0,0h0C104.59,213.23,108.16,208.55,106.37,203.74Z"/><path class="cls-31" d="M97.83,198.58c1,.86,10,4.75,6,12.54C106.19,208.32,107.1,202.71,97.83,198.58Z"/><path class="cls-31" d="M91,200.77c-1.28,1.8-6.46,13.2,5.41,14C89.19,215.49,84.91,209.17,91,200.77Z"/><path class="cls-31" d="M91,202.62c-.37,2.47-1,9,5.14,11.16C91,212.83,89.43,208.7,91,202.62Z"/><path class="cls-31" d="M92.85,201.6c-.38,3,0,10,5.6,12.37C95,211.59,93.47,209,92.85,201.6Z"/><path class="cls-31" d="M101.73,212.78c.48-2.42,1-8.13-4.35-11.92C99.56,203.07,102.17,205.89,101.73,212.78Z"/><path class="cls-31" d="M94,199.77c1,2.08,3.72,7.84,6.31,14A49.46,49.46,0,0,0,94,199.77Z"/><path class="cls-32" d="M90.67,298.52c-15.31,0-27.91-.95-29.43-2.18h0l1.85,3c0,1.25,12.34,2.26,27.58,2.26s27.59-1,27.59-2.26l1.83-3C118.58,297.56,106,298.52,90.67,298.52Z"/><path class="cls-20" d="M90.67,255.48c-31.4,0-56.85-2.08-56.85-4.65A57.93,57.93,0,0,0,61.09,296.1c0,1.33,13.24,2.42,29.58,2.42s29.57-1.09,29.57-2.42a58,58,0,0,0,27.28-45.27C147.52,253.4,122.07,255.48,90.67,255.48Z"/><path class="cls-32" d="M37.14,266.51a.34.34,0,0,0,0,.14l0,.1c1.51,2.31,24.86,4.14,53.45,4.14s51.92-1.83,53.44-4.14a.61.61,0,0,0,0-.12.56.56,0,0,0,0-.12v0c.66-1.84,1.24-3.73,1.72-5.65-2,2.36-26,4.22-55.25,4.22s-53.27-1.86-55.26-4.22c.48,1.92,1.07,3.8,1.73,5.65Z"/><path class="cls-33" d="M93.62,110.78l0,21.07a4,4,0,0,0,7.94,0l0-21.05Z"/><path class="cls-34" d="M77.91,118.88a3.52,3.52,0,1,0,7,0l0-8.29c.52.06,1.09.1,1.68.13v8.78a4,4,0,0,0,7.94,0l0-8.68h1.65l0,9.3a4,4,0,1,0,7.93,0l0-9.27c.58,0,1.15,0,1.69,0,0,0,0,8.14,0,8.24l-3.45,11.14-3.62,3.72a4,4,0,0,0,5.72,5.49L108.7,135a5.22,5.22,0,0,0,1.12-2l3.71-12a10.17,10.17,0,0,0,.23-2.38l0-15.45a4,4,0,0,0-7.77-1c-.59-.16-1.21-.3-1.85-.43V101a4,4,0,0,0-7.92,0c-.64,0-1.27,0-1.89.07a4,4,0,0,0-7.69,1.3h0a21.21,21.21,0,0,0-2,.74,3.51,3.51,0,0,0-6.71,1.47Z"/><path class="cls-33" d="M75.75,103.66l2.13,2.12v-1.15a3.51,3.51,0,0,1,6.71-1.47,21.21,21.21,0,0,1,2-.74h0a4,4,0,0,1,7.69-1.3c.62,0,1.25-.06,1.89-.07a4,4,0,0,1,7.92,0v.72c.64.13,1.26.27,1.85.43a3.95,3.95,0,0,1,7.71.38,5.79,5.79,0,0,0-1.7-4.19L96.77,83.2V10.68H74.06V99.46A5.79,5.79,0,0,0,75.75,103.66Z"/><path class="cls-35" d="M140.2,143.23c2.83-8.44-6.47-8.32-4.52-7.61a5.65,5.65,0,0,1,4.17,5.66,4.5,4.5,0,0,1-5.44,4.42h0l-.23-.11c3.14-4.81-2.85-9.2-1.07-6.57,2.45,3.63.92,9.57-4.45,8.49-4.19-.84-3.88-5.29-3.11-8.41.08-.34-3.7,4.16.59,7.75-2,1.48-4.74.7-6.49-.85s-1.5-4.1-1-6c.77-3.09,3.77-4.82,6-6.84,1.44-1.31,1.32-3,.76-4.69a9,9,0,0,0-1-2c-.39-.56,2.78.26,2.78.26,1,2.47,2.27,5.45,5.29,5.81,2.8.33,5.24.1,7.6,2C142.83,136.77,143.29,141.33,140.2,143.23Z"/></svg>